<?xml version="1.0" encoding="utf-8"?><!-- Uploaded to: SVG Repo, www.svgrepo.com, Generator: SVG Repo Mixer Tools -->
<svg version="1.1" id="Uploaded to svgrepo.com" xmlns="http://www.w3.org/2000/svg" xmlns:xlink="http://www.w3.org/1999/xlink" 
	 width="800px" height="800px" viewBox="0 0 32 32" xml:space="preserve">
<style type="text/css">
	.feather_een{fill:#0B1719;}
</style>
<path class="feather_een" d="M25.496,1.706c-0.123,0-0.248,0.046-0.35,0.147L24,3l-1.293-1.293C22.512,1.512,22.256,1.414,22,1.414
	c-0.256,0-0.512,0.098-0.707,0.293L20,3l-1.293-1.293C18.512,1.512,18.256,1.414,18,1.414s-0.512,0.098-0.707,0.293L16,3
	l-1.293-1.293C14.512,1.512,14.256,1.414,14,1.414c-0.256,0-0.512,0.098-0.707,0.293L12,3l-1.293-1.293
	C10.512,1.512,10.256,1.414,10,1.414S9.488,1.512,9.293,1.707L8,3L6.854,1.854c-0.102-0.102-0.227-0.147-0.35-0.147
	C6.247,1.706,6,1.906,6,2.207v27.586c0,0.301,0.247,0.501,0.504,0.501c0.123,0,0.248-0.046,0.35-0.147L8,29l1.293,1.293
	c0.195,0.195,0.451,0.293,0.707,0.293s0.512-0.098,0.707-0.293L12,29l1.293,1.293c0.195,0.195,0.451,0.293,0.707,0.293
	s0.512-0.098,0.707-0.293L16,29l1.293,1.293c0.195,0.195,0.451,0.293,0.707,0.293s0.512-0.098,0.707-0.293L20,29l1.293,1.293
	c0.195,0.195,0.451,0.293,0.707,0.293s0.512-0.098,0.707-0.293L24,29l1.146,1.146c0.102,0.102,0.227,0.147,0.35,0.147
	c0.257,0,0.504-0.2,0.504-0.501V2.207C26,1.906,25.753,1.706,25.496,1.706z M25,28.586l-0.293-0.293C24.512,28.098,24.256,28,24,28
	s-0.512,0.098-0.707,0.293L22,29.586l-1.293-1.293C20.512,28.098,20.256,28,20,28s-0.512,0.098-0.707,0.293L18,29.586l-1.293-1.293
	C16.512,28.098,16.256,28,16,28s-0.512,0.098-0.707,0.293L14,29.586l-1.293-1.293C12.512,28.098,12.256,28,12,28
	s-0.512,0.098-0.707,0.293L10,29.586l-1.293-1.293C8.512,28.098,8.256,28,8,28s-0.512,0.098-0.707,0.293L7,28.586V3.414l0.293,0.293
	C7.488,3.902,7.744,4,8,4s0.512-0.098,0.707-0.293L10,2.414l1.293,1.293C11.488,3.902,11.744,4,12,4
	c0.256,0,0.512-0.098,0.707-0.293l1.292-1.293l0.001,0l1.293,1.293C15.481,3.895,15.735,4,16,4h0c0.265,0,0.52-0.105,0.707-0.293
	L18,2.414l1.293,1.293C19.489,3.902,19.745,4,20,4c0.256,0,0.512-0.098,0.707-0.293L22,2.414l1.293,1.293C23.48,3.895,23.735,4,24,4
	s0.52-0.105,0.707-0.293L25,3.414V28.586z M16,7.5C16,7.776,15.776,8,15.5,8h-5C10.224,8,10,7.776,10,7.5S10.224,7,10.5,7h5
	C15.776,7,16,7.224,16,7.5z M16,16.5c0,0.276-0.224,0.5-0.5,0.5h-5c-0.276,0-0.5-0.224-0.5-0.5s0.224-0.5,0.5-0.5h5
	C15.776,16,16,16.224,16,16.5z M10,10.5c0-0.276,0.224-0.5,0.5-0.5h3c0.276,0,0.5,0.224,0.5,0.5S13.776,11,13.5,11h-3
	C10.224,11,10,10.776,10,10.5z M22,10.5c0,0.276-0.224,0.5-0.5,0.5h-1c-0.276,0-0.5-0.224-0.5-0.5s0.224-0.5,0.5-0.5h1
	C21.776,10,22,10.224,22,10.5z M22,7.5C22,7.776,21.776,8,21.5,8h-1C20.224,8,20,7.776,20,7.5S20.224,7,20.5,7h1
	C21.776,7,22,7.224,22,7.5z M22,13.5c0,0.276-0.224,0.5-0.5,0.5h-1c-0.276,0-0.5-0.224-0.5-0.5s0.224-0.5,0.5-0.5h1
	C21.776,13,22,13.224,22,13.5z M22,16.5c0,0.276-0.224,0.5-0.5,0.5h-1c-0.276,0-0.5-0.224-0.5-0.5s0.224-0.5,0.5-0.5h1
	C21.776,16,22,16.224,22,16.5z M22,22.5c0,0.276-0.224,0.5-0.5,0.5h-1c-0.276,0-0.5-0.224-0.5-0.5s0.224-0.5,0.5-0.5h1
	C21.776,22,22,22.224,22,22.5z M14,22.5c0,0.276-0.224,0.5-0.5,0.5h-3c-0.276,0-0.5-0.224-0.5-0.5s0.224-0.5,0.5-0.5h3
	C13.776,22,14,22.224,14,22.5z M10,13.5c0-0.276,0.224-0.5,0.5-0.5h4c0.276,0,0.5,0.224,0.5,0.5S14.776,14,14.5,14h-4
	C10.224,14,10,13.776,10,13.5z"/>
</svg>